# xmcd
#
# Track frame offsets: 
#        150
#        13322
#        24818
#        36956
#        49020
#        62085
#        74222
#        86135
#        98088
#        112902
#        123838
#        136821
#        148730
#        160381
#        172753
#        183291
#        196130
#        209637
#        222278
#        234511
#
# Disc length: 3282 seconds
#
# Revision: 0
# Processed by: cddbd v1.5.1PL0 Copyright (c) Steve Scherf et al.
# Submitted via: ExactAudioCopy v0.90a11
#
DISCID=1d0cd014
DTITLE=Various Artist - Best of Western Swing
DYEAR=1900
DGENRE=
TTITLE0=01 - Rock A Bye Baby Blues
TTITLE1=02 - How Cold Hearted Can You Get
TTITLE2=03 - Right or Wrong
TTITLE3=04 - Detour
TTITLE4=05 - Smoke Smoke Smoke That Cigarette 
TTITLE5=06 - There'll Be Some Changes Made
TTITLE6=07 - Nails In My Coffin
TTITLE7=08 - Wildcat Mama
TTITLE8=09 - Corrine Corrina
TTITLE9=10 - Humpty Dumpty Heart
TTITLE10=11 - Milk Cow Blues
TTITLE11=12 - Snatchin' and Grabbin'
TTITLE12=13 - Keep a Knockin'
TTITLE13=14 - Oklahoma Stomp
TTITLE14=15 - Dirty Hangover Blues
TTITLE15=16 - Take It Away Leon
TTITLE16=17 - John Henry
TTITLE17=18 - Talking Boogie
TTITLE18=19 - Easy Ridin' Papa
TTITLE19=20 - Devil Ain't Lazy
EXTD=
EXTT0=
EXTT1=
EXTT2=
EXTT3=
EXTT4=
EXTT5=
EXTT6=
EXTT7=
EXTT8=
EXTT9=
EXTT10=
EXTT11=
EXTT12=
EXTT13=
EXTT14=
EXTT15=
EXTT16=
EXTT17=
EXTT18=
EXTT19=
PLAYORDER=
